<svg xmlns="http://www.w3.org/2000/svg" viewBox="0 0 1280 640" width="1280" height="640" role="img" aria-label="madr-lint">
  <defs>
    <linearGradient id="bg" x1="0" y1="0" x2="0" y2="1">
      <stop offset="0" stop-color="#0b1120"/>
      <stop offset="1" stop-color="#111a33"/>
    </linearGradient>
    <radialGradient id="glow" cx="0.5" cy="0.32" r="0.5">
      <stop offset="0" stop-color="#4f46e5" stop-opacity="0.5"/>
      <stop offset="1" stop-color="#4f46e5" stop-opacity="0"/>
    </radialGradient>
  </defs>
  <rect width="1280" height="640" fill="url(#bg)"/>
  <ellipse cx="640" cy="215" rx="460" ry="200" fill="url(#glow)"/>

  <!-- icon (32 → 128) -->
  <g transform="translate(576,96) scale(4)">
    <rect width="32" height="32" rx="7" fill="#4f46e5"/>
    <path d="M10 7h8.5L23 11.5V25a1.5 1.5 0 0 1-1.5 1.5h-11A1.5 1.5 0 0 1 9 25V8.5A1.5 1.5 0 0 1 10 7z" fill="#fff"/>
    <path d="M18 7v4a1 1 0 0 0 1 1h4" fill="none" stroke="#c7d2fe" stroke-width="1.4" stroke-linejoin="round"/>
    <path d="M12.5 19.2l2.4 2.4 5-5.2" fill="none" stroke="#22c55e" stroke-width="2.4" stroke-linecap="round" stroke-linejoin="round"/>
  </g>

  <text x="640" y="370" text-anchor="middle"
        font-family="ui-monospace, SFMono-Regular, Menlo, Consolas, monospace"
        font-size="104" font-weight="700" fill="#f8fafc">madr<tspan fill="#818cf8">-lint</tspan></text>

  <text x="640" y="432" text-anchor="middle"
        font-family="ui-sans-serif, system-ui, -apple-system, Segoe UI, Roboto, sans-serif"
        font-size="32" fill="#cbd5e1">The MADR-native linter for the JS / TS ecosystem</text>

  <text x="640" y="502" text-anchor="middle" xml:space="preserve"
        font-family="ui-monospace, SFMono-Regular, Menlo, Consolas, monospace"
        font-size="24" letter-spacing="0.5" fill="#64748b">MADR v2·v3·v4      CLI · Library · Action      text · json · sarif</text>

  <text x="640" y="576" text-anchor="middle"
        font-family="ui-monospace, SFMono-Regular, Menlo, Consolas, monospace"
        font-size="24" fill="#94a3b8"><tspan fill="#22c55e">$</tspan> npm i -D madr-lint</text>
</svg>
